<svg width="40" height="40" viewBox="0 0 40 40" fill="none" xmlns="http://www.w3.org/2000/svg">
<g clip-path="url(#clip0)">
<path d="M40.0175 12.6021L37.6671 10.2551C32.3124 15.6327 32.3124 24.347 37.6671 29.7245L40.0175 27.3776C35.9708 23.2959 35.9606 16.6837 40.0175 12.6021Z" fill="#ffffff"/>
<path d="M10.2599 37.6225L12.6103 39.9694C16.6978 35.9184 23.3197 35.9184 27.4073 39.9694L29.7577 37.6225C24.3723 32.2756 15.6453 32.2756 10.2599 37.6225Z" fill="#ffffff"/>
<path d="M29.7577 2.3572L27.4073 0.0102539C23.3197 4.06128 16.6978 4.06128 12.6103 0.0102539L10.2599 2.3572C15.6453 7.70413 24.3723 7.70413 29.7577 2.3572Z" fill="#ffffff"/>
<path d="M34.1621 8.204L34.8877 7.47951L32.5373 5.13257L31.8118 5.85706C25.292 12.3673 14.7256 12.3673 8.21611 5.85706L7.49056 5.13257L5.1402 7.47951L5.86575 8.204C12.3855 14.7142 12.3855 25.2652 5.86575 31.7652L5.1402 32.4897L7.49056 34.8367L8.21611 34.1122C14.7358 27.602 25.3023 27.602 31.8118 34.1122L32.5373 34.8367L34.8877 32.4897L34.1621 31.7652C27.6526 25.2652 27.6526 14.7142 34.1621 8.204ZM12.6716 27.3264C14.5212 22.6224 14.5212 17.3673 12.6716 12.6632C17.3826 14.5101 22.6453 14.5101 27.3563 12.6632C25.5066 17.3673 25.5066 22.6224 27.3563 27.3264C22.6453 25.4795 17.3723 25.4795 12.6716 27.3264Z" fill="#ffffff"/>
<path d="M2.35036 10.2551L0 12.6021C4.05693 16.6837 4.05693 23.2959 0 27.3776L2.35036 29.7245C7.70511 24.347 7.70511 15.6327 2.35036 10.2551Z" fill="#ffffff"/>
</g>
<defs>
<clipPath id="clip0">
<rect width="154" height="40" fill="white"/>
</clipPath>
</defs>
</svg>