<svg width="154" height="40" viewBox="0 0 154 40" fill="none" xmlns="http://www.w3.org/2000/svg">
<g clip-path="url(#clip0)">
<path d="M40.0175 12.6021L37.6671 10.2551C32.3124 15.6327 32.3124 24.347 37.6671 29.7245L40.0175 27.3776C35.9708 23.2959 35.9606 16.6837 40.0175 12.6021Z" fill="#B31066"/>
<path d="M10.2599 37.6225L12.6103 39.9694C16.6978 35.9184 23.3197 35.9184 27.4073 39.9694L29.7577 37.6225C24.3723 32.2756 15.6453 32.2756 10.2599 37.6225Z" fill="#B31066"/>
<path d="M29.7577 2.3572L27.4073 0.0102539C23.3197 4.06128 16.6978 4.06128 12.6103 0.0102539L10.2599 2.3572C15.6453 7.70413 24.3723 7.70413 29.7577 2.3572Z" fill="#B31066"/>
<path d="M34.1621 8.204L34.8877 7.47951L32.5373 5.13257L31.8118 5.85706C25.292 12.3673 14.7256 12.3673 8.21611 5.85706L7.49056 5.13257L5.1402 7.47951L5.86575 8.204C12.3855 14.7142 12.3855 25.2652 5.86575 31.7652L5.1402 32.4897L7.49056 34.8367L8.21611 34.1122C14.7358 27.602 25.3023 27.602 31.8118 34.1122L32.5373 34.8367L34.8877 32.4897L34.1621 31.7652C27.6526 25.2652 27.6526 14.7142 34.1621 8.204ZM12.6716 27.3264C14.5212 22.6224 14.5212 17.3673 12.6716 12.6632C17.3826 14.5101 22.6453 14.5101 27.3563 12.6632C25.5066 17.3673 25.5066 22.6224 27.3563 27.3264C22.6453 25.4795 17.3723 25.4795 12.6716 27.3264Z" fill="#B31066"/>
<path d="M2.35036 10.2551L0 12.6021C4.05693 16.6837 4.05693 23.2959 0 27.3776L2.35036 29.7245C7.70511 24.347 7.70511 15.6327 2.35036 10.2551Z" fill="#B31066"/>
<path d="M51.4322 10.5408H47.4775V29.3877H51.4322V10.5408Z" fill="#B31066"/>
<path d="M70.9198 12.3266C70.276 11.6429 69.4994 11.1021 68.5796 10.7246C67.6804 10.3572 66.638 10.1633 65.4935 10.1633C63.8483 10.1633 62.4789 10.5409 61.4161 11.2858C60.9154 11.6327 60.4556 12.0307 60.0366 12.4695L59.7402 10.5409H56.2045V29.3878H60.0877V18.7143C60.0877 17.9797 60.2103 17.3062 60.4351 16.7041C60.6599 16.1123 60.987 15.5919 61.4059 15.1735C61.8147 14.7552 62.3154 14.4286 62.8775 14.1939C63.4497 13.9592 64.0731 13.847 64.7373 13.847C66.1271 13.847 67.1592 14.245 67.8745 15.0613C68.6103 15.8878 68.9782 17.0511 68.9782 18.5103V29.398H72.8614V17.8368C72.8614 16.7246 72.6979 15.6939 72.3709 14.7654C72.0439 13.8266 71.5534 13.0103 70.9198 12.3266Z" fill="#B31066"/>
<path d="M87.9956 19.8469C87.4131 19.4285 86.7489 19.0815 86.0336 18.8162C85.3489 18.5611 84.654 18.3264 83.9693 18.1224C83.3869 17.9387 82.8248 17.7652 82.273 17.5816C81.762 17.4081 81.3124 17.2244 80.9241 17.0101C80.5766 16.8264 80.3007 16.602 80.1066 16.3673C79.9431 16.1734 79.8715 15.9489 79.8715 15.6224C79.8715 15.0918 80.0963 14.6632 80.5562 14.2958C81.4555 13.5816 83.2744 13.5101 85.0934 14.1326C85.9314 14.4183 86.7591 14.8162 87.5255 15.306L88.0672 15.653L89.8248 12.7346L89.9066 12.602L89.3956 12.2652C88.4453 11.6428 87.3723 11.153 86.2073 10.7856C84.0511 10.102 81.8847 10.0407 80.1168 10.6122C79.2993 10.8775 78.5839 11.255 78.0014 11.7448C77.3985 12.2448 76.9285 12.8571 76.5912 13.5611C76.254 14.2754 76.0905 15.0611 76.0905 15.9591C76.0905 16.8979 76.3051 17.6938 76.7241 18.3367C77.1226 18.9489 77.6438 19.4795 78.2671 19.8877C78.8701 20.2754 79.5445 20.602 80.2803 20.8571C80.965 21.0918 81.6701 21.3162 82.3752 21.5305C82.927 21.6836 83.4788 21.8571 83.9898 22.0305C84.4803 22.1938 84.9197 22.3877 85.2876 22.602C85.6248 22.7958 85.8905 23.0203 86.0744 23.2754C86.238 23.4897 86.3095 23.7346 86.3095 24.0918C86.3095 24.7448 86.054 25.2448 85.5431 25.6224C84.4598 26.4183 82.3854 26.4591 80.3927 25.7142C79.4219 25.3469 78.4715 24.8162 77.5723 24.1326L77.0511 23.7346L74.9971 26.6224L75.4671 26.9897C76.5095 27.8264 77.7358 28.4897 79.0847 28.9795C80.4438 29.4693 81.8131 29.7142 83.1518 29.7142C84.092 29.7142 84.9912 29.5815 85.8088 29.3264C86.6467 29.0611 87.3825 28.6734 87.9956 28.1734C88.619 27.6632 89.1197 27.0407 89.4876 26.3162C89.8657 25.5713 90.0496 24.7244 90.0496 23.7346C90.0496 22.8264 89.8555 22.0407 89.4672 21.3979C89.1095 20.8162 88.6088 20.2754 87.9956 19.8469Z" fill="#B31066"/>
<path d="M109.415 12.7448C108.556 11.908 107.585 11.255 106.502 10.8264C104.642 10.0815 102.496 9.95907 100.759 10.5203C100.044 10.755 99.3795 11.0611 98.7868 11.4387C98.1941 11.8162 97.6627 12.2754 97.1824 12.7856C97.1314 12.8468 97.07 12.908 97.0189 12.9591L96.7226 10.5407H93.1868V34.8366H97.07V27.1632C97.1007 27.1938 97.1314 27.2244 97.162 27.2652C97.6423 27.755 98.1737 28.1836 98.7664 28.5509C99.3591 28.9182 100.034 29.2142 100.759 29.4387C102.558 29.9795 104.724 29.8468 106.553 29.0917C107.636 28.6427 108.607 27.9897 109.445 27.1529C110.283 26.3162 110.968 25.2856 111.469 24.0713C111.98 22.8468 112.235 21.4897 112.235 19.9183C112.235 18.3876 111.98 16.9999 111.469 15.806C110.958 14.6121 110.263 13.5815 109.415 12.7448ZM108.27 20.0203C108.27 20.9999 108.117 21.8876 107.82 22.6529C107.524 23.408 107.115 24.0611 106.625 24.5713C106.134 25.0815 105.542 25.4795 104.867 25.755C103.477 26.3162 101.914 26.306 100.585 25.7244C99.9007 25.4285 99.2773 25.0101 98.7357 24.4795C98.1941 23.9489 97.7649 23.2958 97.4481 22.5407C97.1211 21.7754 96.9679 20.9183 96.9679 19.9285C96.9679 19.0203 97.1313 18.1836 97.4481 17.4387C97.7649 16.6938 98.2043 16.0407 98.7459 15.4897C99.2876 14.9489 99.9109 14.5203 100.596 14.2244C101.27 13.9285 101.985 13.7856 102.711 13.7856C103.467 13.7856 104.182 13.9285 104.847 14.2142C105.521 14.4999 106.114 14.908 106.615 15.4285C107.126 15.9591 107.534 16.6121 107.831 17.3672C108.127 18.1325 108.27 18.9999 108.27 20.0203Z" fill="#B31066"/>
<path d="M119.429 10.5408H115.546V29.3877H119.429V10.5408Z" fill="#B31066"/>
<path d="M131.743 10.5715C130.956 10.8164 130.22 11.1838 129.556 11.6633C128.892 12.1429 128.299 12.7144 127.788 13.3674C127.747 13.4184 127.717 13.4593 127.676 13.5103L127.379 10.5409H123.833V29.3878H127.717V21.745C127.717 20.5103 127.89 19.4082 128.228 18.4695C128.565 17.5511 129.025 16.7654 129.597 16.1531C130.159 15.5409 130.833 15.0817 131.6 14.7756C132.377 14.4695 133.204 14.3062 134.073 14.3062H134.911V10.2348L134.298 10.2246C133.398 10.2144 132.54 10.3164 131.743 10.5715Z" fill="#B31066"/>
<path d="M153.407 16.2857C153.019 15.0816 152.447 14.0102 151.69 13.1122C150.934 12.204 149.984 11.4796 148.89 10.9592C146.704 9.91834 143.73 9.90813 141.492 10.9387C140.388 11.4489 139.417 12.153 138.61 13.0408C137.813 13.9285 137.18 14.9796 136.73 16.1734C136.28 17.3571 136.055 18.6428 136.055 19.9898C136.055 21.4285 136.311 22.7653 136.801 23.9694C137.292 25.1734 137.977 26.2245 138.825 27.0816C139.673 27.9489 140.685 28.6224 141.829 29.0918C142.963 29.5612 144.2 29.8061 145.477 29.8061C147.255 29.8061 148.768 29.4796 149.994 28.8265C151.19 28.1938 152.273 27.3367 153.203 26.2857L153.622 25.8163L151.067 23.5306L150.648 23.9592C149.974 24.653 149.217 25.2245 148.41 25.6428C147.634 26.051 146.673 26.2551 145.549 26.2551C144.854 26.2551 144.18 26.1326 143.546 25.9081C142.912 25.6836 142.34 25.3265 141.839 24.8877C141.339 24.4489 140.92 23.8877 140.593 23.2449C140.358 22.7755 140.184 22.2449 140.071 21.6734H153.888L153.949 21.1122C153.98 20.8673 153.99 20.6734 153.99 20.5204V20.1326C153.98 18.7653 153.785 17.4796 153.407 16.2857ZM140.082 18.2653C140.184 17.7551 140.347 17.2755 140.552 16.8163C140.848 16.1632 141.226 15.5816 141.686 15.1122C142.125 14.6428 142.636 14.2755 143.219 14.0204C144.394 13.5 145.958 13.5102 147.112 14.051C147.705 14.3265 148.206 14.7041 148.604 15.1734C149.023 15.6632 149.361 16.2245 149.606 16.8673C149.78 17.3061 149.902 17.7755 149.994 18.2653H140.082Z" fill="#B31066"/>
</g>
<defs>
<clipPath id="clip0">
<rect width="154" height="40" fill="white"/>
</clipPath>
</defs>
</svg>
